<svg xmlns="http://www.w3.org/2000/svg" xmlns:xlink="http://www.w3.org/1999/xlink" viewBox="0 0 514.23 650.67"><defs><style>.cls-1{fill:url(#Dégradé_sans_nom_39);}.cls-2{fill:url(#Dégradé_sans_nom_145);}.cls-3{fill:url(#Dégradé_sans_nom_144);}.cls-4{fill:url(#Dégradé_sans_nom_3);}.cls-5{fill:url(#Dégradé_sans_nom_5);}</style><linearGradient id="Dégradé_sans_nom_39" y1="325.33" x2="514.23" y2="325.33" gradientUnits="userSpaceOnUse"><stop offset="0.15" stop-color="#f8c0bf"/><stop offset="0.5" stop-color="#f0f0f0"/><stop offset="0.75" stop-color="#f9d55b"/></linearGradient><linearGradient id="Dégradé_sans_nom_145" x1="427.95" y1="199.98" x2="408.06" y2="205.47" gradientUnits="userSpaceOnUse"><stop offset="0" stop-color="#d6b31e"/><stop offset="0.14" stop-color="#d6b31e" stop-opacity="0.99"/><stop offset="0.23" stop-color="#d6b31e" stop-opacity="0.95"/><stop offset="0.32" stop-color="#d6b31e" stop-opacity="0.87"/><stop offset="0.39" stop-color="#d6b31e" stop-opacity="0.77"/><stop offset="0.46" stop-color="#d6b31e" stop-opacity="0.64"/><stop offset="0.52" stop-color="#d6b31e" stop-opacity="0.48"/><stop offset="0.59" stop-color="#d6b31e" stop-opacity="0.29"/><stop offset="0.64" stop-color="#d6b31e" stop-opacity="0.08"/><stop offset="0.66" stop-color="#d6b31e" stop-opacity="0"/></linearGradient><linearGradient id="Dégradé_sans_nom_144" x1="437.34" y1="199.67" x2="448.63" y2="199.05" gradientUnits="userSpaceOnUse"><stop offset="0" stop-color="#d6b31e"/><stop offset="0.75" stop-color="#d6b31e" stop-opacity="0"/></linearGradient><linearGradient id="Dégradé_sans_nom_3" x1="159.98" y1="371.67" x2="111.48" y2="308.27" gradientUnits="userSpaceOnUse"><stop offset="0" stop-color="#f3a9cb"/><stop offset="0.08" stop-color="#f3a9cb" stop-opacity="0.97"/><stop offset="0.21" stop-color="#f3a9cb" stop-opacity="0.87"/><stop offset="0.37" stop-color="#f3a9cb" stop-opacity="0.72"/><stop offset="0.55" stop-color="#f3a9cb" stop-opacity="0.51"/><stop offset="0.75" stop-color="#f3a9cb" stop-opacity="0.25"/><stop offset="0.92" stop-color="#f3a9cb" stop-opacity="0"/></linearGradient><linearGradient id="Dégradé_sans_nom_5" x1="147.77" y1="406.86" x2="111.08" y2="378.21" gradientUnits="userSpaceOnUse"><stop offset="0" stop-color="#f3a9cb" stop-opacity="0"/><stop offset="0.25" stop-color="#f3a9cb" stop-opacity="0.35"/><stop offset="0.5" stop-color="#f3a9cb" stop-opacity="0.7"/><stop offset="0.69" stop-color="#f3a9cb" stop-opacity="0.92"/><stop offset="0.77" stop-color="#f3a9cb"/></linearGradient></defs><g id="Calque_2" data-name="Calque 2"><g id="Logo_Portfolio" data-name="Logo Portfolio"><g id="Logo_ombré_couleurs" data-name="Logo ombré couleurs"><path class="cls-1" d="M514.23,453.07q-8.48-29.88-18-59.38c-6.27-19.7-13-39.24-19.82-58.71-20.3-57.67-43.8-115.74-72.55-170.25q-7.2-13.54-14.89-26.77c-14.94-25.72-32.7-51.05-53.25-73.14-17.77-19.1-42.47-37.2-69.51-40.11-28-3-55.58,13.7-73.19,34.34-24.14,28.3-34.33,66-39.06,102.21-5.52,42.21-6.31,84.8-6.19,127.31.19,72.69,4.58,147.15-8.21,219.08-5.58,31.37-14.83,63.06-31.46,90.47C93.56,622,62.85,655.71,31.25,650c-66.28-11.9-9-131.53,7.24-164.15a557.23,557.23,0,0,1,78.27-116.31A546.94,546.94,0,0,1,210,284.65a509.54,509.54,0,0,1,53.52-33.29,483.13,483.13,0,0,1,57.22-26.1,468.23,468.23,0,0,1,60-18.22,473,473,0,0,1,61.65-10,498.75,498.75,0,0,1,62.17-2,522.29,522.29,0,0,0-121.7,20.13,483.63,483.63,0,0,0-112,49.05,500.91,500.91,0,0,0-50.42,34.43,533.67,533.67,0,0,0-45.89,40.12,554.26,554.26,0,0,0-41.11,44.9,582,582,0,0,0-36,49,529.71,529.71,0,0,0-30.3,52.52A431.13,431.13,0,0,0,43.68,540.6a290.78,290.78,0,0,0-8.11,28.52,173.89,173.89,0,0,0-4.25,28.32c-.31,6-2.07,25.1,7.94,24.61,15.08-.77,32.06-21.58,40-33,10.83-15.51,17.34-33.61,23-51.53,9.67-30.87,12.85-62.52,14.35-94.66.6-10.14.9-20.34,1.19-30.55,1.09-40.88.21-82.17.36-123.76.09-20.79.44-41.68,1.4-62.66,2.4-52.43,8.19-109.77,34.1-156.46C175.57,29.93,218.24-3.42,265.46.28c67.64,5.47,110.94,74.9,139.6,128.63a772.68,772.68,0,0,1,33.25,71l5.91,14.47c15.36,38.73,28.39,78.22,40.06,118S506,412.47,514.23,453.07Z"/><polygon class="cls-2" points="421.25 199.5 423.85 204.99 411.53 207.65 408.41 201.49 421.25 199.5"/><polygon class="cls-3" points="437.32 197.5 439.21 202.11 448.14 200.66 446.55 196.62 437.32 197.5"/><polygon class="cls-4" points="118.34 367.76 148.23 336.34 147.84 305.27 118.34 321.86 118.34 367.76"/><polygon class="cls-5" points="118 403.3 148.56 365.86 148.36 406.57 117.41 424.76 118 403.3"/></g></g></g></svg>